<?xml version="1.0" encoding="UTF-8" standalone="no"?>
<svg
   xmlns:dc="http://purl.org/dc/elements/1.1/"
   xmlns:cc="http://creativecommons.org/ns#"
   xmlns:rdf="http://www.w3.org/1999/02/22-rdf-syntax-ns#"
   xmlns:svg="http://www.w3.org/2000/svg"
   xmlns="http://www.w3.org/2000/svg"
   xmlns:sodipodi="http://sodipodi.sourceforge.net/DTD/sodipodi-0.dtd"
   xmlns:inkscape="http://www.inkscape.org/namespaces/inkscape"
   height="85.000069"
   width="65"
   version="1.1"
   viewBox="0 0 65 85.000069"
   x="0px"
   y="0px"
   id="svg831"
   sodipodi:docname="paper_icon.svg"
   style="fill:#000000"
   inkscape:version="0.92.4 (5da689c313, 2019-01-14)">
  <metadata
     id="metadata837">
    <rdf:RDF>
      <cc:Work
         rdf:about="">
        <dc:format>image/svg+xml</dc:format>
        <dc:type
           rdf:resource="http://purl.org/dc/dcmitype/StillImage" />
        <dc:title></dc:title>
      </cc:Work>
    </rdf:RDF>
  </metadata>
  <defs
     id="defs835" />
  <sodipodi:namedview
     pagecolor="#ffffff"
     bordercolor="#666666"
     borderopacity="1"
     objecttolerance="10"
     gridtolerance="10"
     guidetolerance="10"
     inkscape:pageopacity="0"
     inkscape:pageshadow="2"
     inkscape:window-width="1920"
     inkscape:window-height="1017"
     id="namedview833"
     showgrid="false"
     inkscape:zoom="8.5"
     inkscape:cx="32.617647"
     inkscape:cy="42.73533"
     inkscape:window-x="-8"
     inkscape:window-y="-8"
     inkscape:window-maximized="1"
     inkscape:current-layer="svg831" />
  <g
     transform="matrix(-1,0,0,1,82.5,-959.86213)"
     id="g829">
    <path
       d="m 20,959.86213 a 2.50025,2.50025 0 0 0 -2.5,2.5 v 50.00007 30 a 2.50025,2.50025 0 0 0 2.5,2.5 h 60 a 2.50025,2.50025 0 0 0 2.5,-2.5 v -60.00007 a 2.50025,2.50025 0 0 0 -0.73242,-1.7676 l -20,-20 A 2.50025,2.50025 0 0 0 60,959.86213 Z m 2.5,5 h 35 v 17.5 a 2.50025,2.50025 0 0 0 2.5,2.5 h 17.5 v 55.00007 h -55 v -27.5 z m 40,3.5352 11.46289,11.4648 H 62.5 Z m -32.48242,21.4648 a 2.50025,2.50025 0 1 0 0,5 h 40 a 2.50025,2.50025 0 1 0 0,-5 z m 0,10 a 2.50025,2.50025 0 1 0 0,4.99997 h 40 a 2.50025,2.50025 0 1 0 0,-4.99997 z m 0,10.00007 a 2.50025,2.50025 0 1 0 0,5 h 40 a 2.50025,2.50025 0 1 0 0,-5 z m 0,10 a 2.50025,2.50025 0 1 0 0,5 h 40 a 2.50025,2.50025 0 1 0 0,-5 z m 0,10 a 2.50025,2.50025 0 1 0 0,5 h 40 a 2.50025,2.50025 0 1 0 0,-5 z"
       style="color:#000000;font-style:normal;font-variant:normal;font-weight:normal;font-stretch:normal;font-size:medium;line-height:normal;font-family:sans-serif;text-indent:0;text-align:start;text-decoration:none;text-decoration-line:none;text-decoration-style:solid;text-decoration-color:#000000;letter-spacing:normal;word-spacing:normal;text-transform:none;writing-mode:lr-tb;direction:ltr;baseline-shift:baseline;text-anchor:start;white-space:normal;clip-rule:nonzero;display:inline;overflow:visible;visibility:visible;opacity:1;isolation:auto;mix-blend-mode:normal;color-interpolation:sRGB;color-interpolation-filters:linearRGB;solid-color:#000000;solid-opacity:1;fill:#000000;fill-opacity:1;fill-rule:evenodd;stroke:none;stroke-width:5;stroke-linecap:round;stroke-linejoin:round;stroke-miterlimit:4;stroke-dasharray:none;stroke-dashoffset:0;stroke-opacity:1;marker:none;color-rendering:auto;image-rendering:auto;shape-rendering:auto;text-rendering:auto;enable-background:accumulate"
       id="path827"
       inkscape:connector-curvature="0" />
  </g>
  <path
     style="fill:#ffffff;stroke:none;stroke-width:0.11764706"
     d="M 59.911765,42.500033 V 5.0882681 H 42.5 25.088235 v 8.7714329 c 0,6.327338 -0.03851,8.924362 -0.138199,9.320272 -0.189782,0.753692 -1.016404,1.580314 -1.770096,1.770096 -0.395909,0.09969 -2.992934,0.138199 -9.320272,0.138199 H 5.088235 V 52.500033 79.911797 H 32.5 59.911765 Z M 11.143013,74.674687 c -0.727688,-0.449913 -1.231248,-1.33931 -1.231248,-2.174654 0,-0.835345 0.50356,-1.724741 1.231248,-2.174654 l 0.573783,-0.354758 20.473536,-0.03104 c 23.016034,-0.0349 21.299565,-0.100004 22.16676,0.840792 0.967073,1.04915 0.9672,2.390033 3.29e-4,3.438967 -0.849652,0.921763 0.874899,0.856833 -22.101961,0.83216 l -20.538662,-0.02205 z m 0,-10 c -0.727688,-0.449913 -1.231248,-1.33931 -1.231248,-2.174654 0,-0.835345 0.50356,-1.724741 1.231248,-2.174654 l 0.573783,-0.354758 20.473536,-0.03104 c 23.016034,-0.0349 21.299565,-0.100004 22.16676,0.840792 0.967073,1.04915 0.9672,2.390033 3.29e-4,3.438967 -0.849652,0.921763 0.874899,0.856833 -22.101961,0.83216 l -20.538662,-0.02205 z m 0,-10 c -0.727688,-0.449913 -1.231248,-1.33931 -1.231248,-2.174654 0,-0.835345 0.50356,-1.724741 1.231248,-2.174654 l 0.573783,-0.354758 20.473536,-0.03104 c 23.016034,-0.0349 21.299565,-0.100004 22.16676,0.840792 0.967073,1.04915 0.9672,2.390033 3.29e-4,3.438967 -0.849652,0.921763 0.874899,0.856833 -22.101961,0.83216 l -20.538662,-0.02205 z m 0,-10 c -0.805875,-0.498254 -1.270345,-1.383181 -1.206404,-2.298492 0.08294,-1.187272 0.827769,-2.097183 1.925003,-2.351655 0.26792,-0.06214 8.939069,-0.108308 20.646447,-0.109935 22.669071,-0.0032 20.986525,-0.06994 21.850517,0.867377 0.965563,1.047512 0.965111,2.389079 -0.0012,3.437357 -0.849652,0.921763 0.874899,0.856833 -22.101962,0.83216 l -20.538663,-0.02205 z m 0,-10 c -0.727688,-0.449913 -1.231248,-1.33931 -1.231248,-2.174654 0,-0.835345 0.50356,-1.724741 1.231248,-2.174654 l 0.573783,-0.354758 20.473536,-0.03104 c 23.016034,-0.0349 21.299565,-0.100004 22.16676,0.840792 0.967073,1.04915 0.9672,2.390033 3.29e-4,3.438967 -0.849652,0.921763 0.874899,0.856833 -22.101961,0.83216 l -20.538662,-0.02205 z"
     id="path839"
     inkscape:connector-curvature="0" />
  <path
     style="fill:#ffffff;stroke:none;stroke-width:0.11764706"
     d="M 59.911765,42.500033 V 5.0882681 H 42.503495 25.095226 l -0.03291,9.0294119 c -0.03276,8.987863 -0.03407,9.031577 -0.286164,9.5 -0.293486,0.54534 -0.638839,0.883541 -1.217331,1.192121 -0.390082,0.208078 -0.887251,0.221376 -9.441177,0.252551 l -9.029412,0.03291 V 52.503528 79.911797 H 32.5 59.911765 Z M 11.382353,74.8336 C 9.790686,73.950394 9.444545,72.014548 10.653021,70.754701 11.474496,69.898306 9.536353,69.97415 31.5,69.938899 c 10.870588,-0.01745 20.285175,0.01513 20.921304,0.07239 1.251828,0.112681 1.502295,0.228255 2.095527,0.966947 0.178513,0.222284 0.391087,0.655623 0.472387,0.962976 0.254422,0.961838 -0.182929,2.039513 -1.089738,2.685218 -0.268643,0.191292 -0.62015,0.282916 -1.323799,0.345067 -0.526919,0.04654 -9.931563,0.07862 -20.89921,0.07128 -18.367226,-0.01228 -19.969035,-0.02879 -20.294118,-0.209179 z m 0,-10 C 9.790686,63.950394 9.444545,62.014548 10.653021,60.754701 11.474496,59.898306 9.536353,59.97415 31.5,59.938899 c 10.870588,-0.01745 20.285175,0.01513 20.921304,0.07239 1.251828,0.112681 1.502295,0.228255 2.095527,0.966947 0.178513,0.222284 0.391087,0.655623 0.472387,0.962976 0.254422,0.961838 -0.182929,2.039513 -1.089738,2.685218 -0.268643,0.191292 -0.62015,0.282916 -1.323799,0.345067 -0.526919,0.04654 -9.931563,0.07862 -20.89921,0.07128 -18.367226,-0.01228 -19.969035,-0.02879 -20.294118,-0.209179 z m 0,-10 C 9.790686,53.950394 9.444545,52.014548 10.653021,50.754701 11.474496,49.898306 9.536353,49.97415 31.5,49.938899 c 10.870588,-0.01745 20.285175,0.01513 20.921304,0.07239 1.251828,0.112681 1.502295,0.228255 2.095527,0.966947 0.178513,0.222284 0.391087,0.655623 0.472387,0.962976 0.254422,0.961838 -0.182929,2.039513 -1.089738,2.685218 -0.268643,0.191292 -0.62015,0.282916 -1.323799,0.345067 -0.526919,0.04654 -9.931563,0.07862 -20.89921,0.07129 -18.367226,-0.01228 -19.969035,-0.02879 -20.294118,-0.209179 z m -0.0024,-9.999114 c -2.161677,-1.185858 -1.820855,-4.259289 0.531859,-4.796134 0.635943,-0.145111 39.176099,-0.162366 40.684854,-0.01822 0.675863,0.06457 1.07444,0.16481 1.287308,0.323739 0.518869,0.387392 0.950081,1.010566 1.105291,1.597334 0.254422,0.961838 -0.182929,2.039513 -1.089738,2.685218 -0.268643,0.191292 -0.62015,0.282916 -1.323799,0.345067 -0.526919,0.04654 -9.931563,0.07862 -20.89921,0.07129 C 13.347402,45.03052 11.706612,45.01368 11.379955,44.834487 Z M 11.382353,34.8336 C 9.790686,33.950394 9.444545,32.014548 10.653021,30.754701 11.474496,29.898306 9.536353,29.97415 31.5,29.938899 c 10.870588,-0.01745 20.285175,0.01513 20.921304,0.07239 1.251828,0.112681 1.502295,0.228255 2.095527,0.966947 0.178513,0.222284 0.391087,0.655623 0.472387,0.962976 0.254422,0.961838 -0.182929,2.039513 -1.089738,2.685218 -0.268643,0.191292 -0.62015,0.282916 -1.323799,0.345067 -0.526919,0.04654 -9.931563,0.07862 -20.89921,0.07129 -18.367226,-0.01228 -19.969035,-0.02879 -20.294118,-0.209179 z"
     id="path841"
     inkscape:connector-curvature="0" />
  <path
     style="fill:#ffffff;stroke:none;stroke-width:0.11764706"
     d="M 19.911765,14.294615 V 8.6774322 l -5.588236,5.5873068 c -3.073529,3.073018 -5.588235,5.60075 -5.588235,5.617182 0,0.01643 2.514706,0.02988 5.588235,0.02988 h 5.588236 z"
     id="path843"
     inkscape:connector-curvature="0" />
</svg>
